<svg width="36" height="36" viewBox="0 0 36 36" fill="none" xmlns="http://www.w3.org/2000/svg">
<path d="M25.2063 12.4137C26.101 12.4137 26.8263 11.6884 26.8263 10.7937C26.8263 9.89901 26.101 9.17371 25.2063 9.17371C24.3116 9.17371 23.5863 9.89901 23.5863 10.7937C23.5863 11.6884 24.3116 12.4137 25.2063 12.4137Z" fill="black"/>
<path d="M18.0001 11.0675C16.629 11.0675 15.2887 11.4741 14.1487 12.2358C13.0086 12.9976 12.1201 14.0803 11.5954 15.347C11.0707 16.6138 10.9334 18.0077 11.2009 19.3524C11.4684 20.6972 12.1286 21.9325 13.0981 22.902C14.0677 23.8715 15.3029 24.5318 16.6477 24.7993C17.9924 25.0667 19.3863 24.9295 20.6531 24.4048C21.9198 23.8801 23.0025 22.9915 23.7643 21.8515C24.526 20.7114 24.9326 19.3711 24.9326 18C24.9326 16.1614 24.2022 14.3981 22.9021 13.098C21.602 11.7979 19.8387 11.0675 18.0001 11.0675ZM18.0001 22.5C17.1101 22.5 16.2401 22.2361 15.5001 21.7416C14.76 21.2471 14.1833 20.5443 13.8427 19.7221C13.5021 18.8998 13.413 17.995 13.5866 17.1221C13.7602 16.2492 14.1888 15.4473 14.8182 14.818C15.4475 14.1887 16.2493 13.7601 17.1222 13.5864C17.9951 13.4128 18.8999 13.5019 19.7222 13.8425C20.5445 14.1831 21.2473 14.7599 21.7417 15.4999C22.2362 16.2399 22.5001 17.11 22.5001 18C22.5001 19.1935 22.026 20.338 21.1821 21.182C20.3382 22.0259 19.1936 22.5 18.0001 22.5Z" fill="black"/>
<path d="M18.0001 6.93248C21.6047 6.93248 22.0317 6.9462 23.4552 7.01123C24.3113 7.02142 25.1592 7.17865 25.962 7.47608C26.5442 7.70072 27.0729 8.04473 27.5142 8.48599C27.9554 8.92724 28.2995 9.45596 28.5241 10.0381C28.8215 10.841 28.9788 11.6889 28.9889 12.545C29.0539 13.9685 29.0677 14.3955 29.0677 18.0001C29.0677 21.6047 29.054 22.0318 28.9889 23.4552C28.9788 24.3113 28.8215 25.1593 28.5241 25.9621C28.2995 26.5443 27.9554 27.073 27.5142 27.5142C27.0729 27.9555 26.5442 28.2995 25.962 28.5241C25.1592 28.8216 24.3113 28.9788 23.4552 28.989C22.0318 29.0539 21.605 29.0677 18.0001 29.0677C14.3951 29.0677 13.9683 29.054 12.5449 28.989C11.6889 28.9788 10.8409 28.8216 10.0381 28.5241C9.45591 28.2995 8.92719 27.9555 8.48593 27.5142C8.04468 27.073 7.70067 26.5443 7.47602 25.9621C7.1786 25.1593 7.02136 24.3113 7.01117 23.4552C6.94626 22.0318 6.93242 21.6047 6.93242 18.0001C6.93242 14.3955 6.94615 13.9685 7.01117 12.545C7.02136 11.6889 7.1786 10.841 7.47602 10.0381C7.70066 9.45594 8.04466 8.9272 8.48592 8.48592C8.92717 8.04465 9.4559 7.70062 10.0381 7.47596C10.8409 7.17854 11.6889 7.0213 12.5449 7.01111C13.9684 6.9462 14.3954 6.93248 18.0001 6.93248ZM18.0001 4.5C14.3337 4.5 13.8739 4.51552 12.434 4.58122C11.3142 4.60371 10.2064 4.81589 9.15756 5.20875C8.26064 5.5556 7.44607 6.08602 6.76608 6.76602C6.08609 7.44601 5.55566 8.26057 5.20881 9.1575C4.81589 10.2065 4.6037 11.3146 4.58129 12.4345C4.51559 13.8738 4.50006 14.3336 4.50006 18C4.50006 21.6664 4.51559 22.1262 4.58129 23.566C4.60372 24.686 4.8159 25.7941 5.20881 26.8431C5.55566 27.74 6.08609 28.5546 6.76608 29.2345C7.44607 29.9145 8.26064 30.445 9.15756 30.7918C10.2066 31.1847 11.3146 31.3969 12.4346 31.4193C13.8739 31.4845 14.3337 31.5 18.0001 31.5C21.6664 31.5 22.1262 31.4845 23.5661 31.4188C24.6861 31.3963 25.7941 31.1842 26.8431 30.7913C27.74 30.4444 28.5546 29.914 29.2346 29.234C29.9146 28.554 30.445 27.7394 30.7919 26.8425C31.1848 25.7935 31.397 24.6854 31.4194 23.5655C31.4845 22.1262 31.5001 21.6664 31.5001 18C31.5001 14.3336 31.4845 13.8738 31.4188 12.4339C31.3964 11.3142 31.1842 10.2063 30.7913 9.1575C30.4444 8.26068 29.9139 7.44622 29.234 6.76633C28.554 6.08644 27.7394 5.5561 26.8426 5.20931C25.7936 4.8164 24.6855 4.60422 23.5655 4.58179C22.1262 4.51553 21.6664 4.5 18.0001 4.5Z" fill="black"/>
</svg>
