<svg width="32" height="32" viewBox="0 0 32 32" fill="none" xmlns="http://www.w3.org/2000/svg">
<g clip-path="url(#clip0_38_391)">
<rect width="32" height="32" fill="#4FB1FC"/>
<path d="M5.03682 15.9231C3.77279 13.7191 3.16245 11.9193 2.79444 10.0949C2.25015 7.39676 3.49574 4.76107 5.55916 3.07929C6.43125 2.3685 7.43096 2.61135 7.94666 3.53652L9.1109 5.6252C10.0337 7.28074 10.4951 8.10851 10.4036 8.98611C10.3121 9.86371 9.68981 10.5785 8.44529 12.008L5.03682 15.9231ZM5.03682 15.9231C7.59533 20.3844 11.6104 24.4017 16.0768 26.9632M16.0768 26.9632C18.2809 28.2272 20.0807 28.8375 21.905 29.2055C24.6032 29.7498 27.2389 28.5042 28.9207 26.4408C29.6315 25.5687 29.3886 24.569 28.4635 24.0533L26.3748 22.8891C24.7192 21.9663 23.8915 21.5049 23.0139 21.5964C22.1363 21.6879 21.4215 22.3102 19.992 23.5547L16.0768 26.9632Z" stroke="#EC1818" stroke-width="7" stroke-linejoin="round"/>
</g>
<defs>
<clipPath id="clip0_38_391">
<rect width="32" height="32" fill="white"/>
</clipPath>
</defs>
</svg>
