<svg width="35" height="24" viewBox="0 0 35 24" fill="none" xmlns="http://www.w3.org/2000/svg">
<rect x="0.5" y="0.5" width="34" height="23" rx="5.5" fill="#F5F5F5" stroke="#D9D9D9"/>
<path fill-rule="evenodd" clip-rule="evenodd" d="M7.13974 13.7668C6.94832 13.873 6.74452 13.926 6.52847 13.926H6.36174C6.31844 13.926 6.25659 13.9223 6.07797 13.8907L6.6819 11.3211C6.793 11.2213 6.91285 11.1565 7.0518 11.1251C7.19074 11.0939 7.28023 11.0855 7.36677 11.0855C7.63215 11.0855 7.83749 11.1626 7.93635 11.3312C8.03507 11.4998 8.08453 11.734 8.08453 12.0337C8.08453 12.2773 8.0443 12.5115 7.96413 12.7363C7.88381 12.9611 7.77424 13.1625 7.63537 13.3405C7.49642 13.5185 7.33109 13.6606 7.13974 13.7668ZM8.50138 10.076C8.28512 9.96987 8.02898 9.91673 7.73254 9.91673C7.59045 9.91673 7.45772 9.93237 7.33431 9.96357C7.21068 9.99491 7.09426 10.0353 6.97085 10.0915L7.53811 7.67792L6.10238 7.90271L4.5 14.7128C4.67904 14.8004 4.86885 14.869 5.06965 14.9189C5.27023 14.9688 5.46011 15.0063 5.63922 15.0313C5.81826 15.0562 5.97736 15.0702 6.11631 15.0735C6.25525 15.0765 6.3525 15.0781 6.40806 15.0781C6.84022 15.0781 7.24168 14.9953 7.61213 14.8299C7.98266 14.6645 8.30366 14.4397 8.57547 14.1555C8.84714 13.8713 9.06172 13.5372 9.21921 13.1531C9.37669 12.7691 9.4554 12.3616 9.4554 11.9307C9.4554 11.6497 9.42133 11.3874 9.35347 11.1439C9.28546 10.9002 9.18052 10.688 9.03856 10.5068C8.89646 10.3258 8.71742 10.1822 8.50138 10.076ZM12.2986 9.31559L12.5096 8.41818H11.1342L10.9233 9.31559H12.2986ZM13.8712 13.812C13.9723 13.8633 14.1116 13.8887 14.2888 13.8887C14.4407 13.8887 14.5878 13.8744 14.7302 13.8456C14.8233 13.8267 14.9199 13.8045 15.0161 13.7713L14.7297 14.9831C14.7072 14.9886 14.6724 14.9971 14.6495 15.0024C14.428 15.0535 14.1654 15.0791 13.8617 15.0791C13.425 15.0791 13.0863 15.0135 12.8459 14.8824C12.6053 14.7513 12.4345 14.572 12.3333 14.3448C12.232 14.1176 12.1876 13.8568 12.2004 13.5623C12.213 13.2681 12.2574 12.9575 12.3333 12.6311L13.2636 8.65663L14.735 8.42618L14.3742 9.91426H15.95L15.6653 11.0855H14.099L13.6813 12.8519C13.6433 12.9992 13.6196 13.1368 13.6101 13.2647C13.6006 13.3928 13.6163 13.5032 13.6576 13.5959C13.6987 13.6888 13.7698 13.7608 13.8712 13.812ZM31 9.91587H29.6247L28.8248 13.3195H28.8262L28.7162 13.7877C28.6395 13.8095 28.5631 13.8291 28.4872 13.8445C28.3449 13.8733 28.1977 13.8877 28.0458 13.8877C27.8686 13.8877 27.7293 13.8622 27.6282 13.8109C27.5268 13.7597 27.4557 13.6878 27.4146 13.5949C27.3733 13.5022 27.3576 13.3918 27.3671 13.2636C27.3766 13.1357 27.4004 12.9982 27.4383 12.8509L27.856 11.0844L28.1313 9.91318L28.1313 9.91283H26.7263L26.0904 12.6301C26.0144 12.9565 25.9701 13.267 25.9575 13.5613C25.9447 13.8557 25.989 14.1166 26.0904 14.3437C26.1915 14.5709 26.3624 14.7502 26.603 14.8814C26.8434 15.0124 27.182 15.0781 27.6186 15.0781C27.9224 15.0781 28.185 15.0525 28.4066 15.0013C28.4155 14.9992 28.4241 14.997 28.4329 14.9949L28.4323 14.9974C28.3707 15.2777 28.246 15.5051 28.0459 15.6825C27.8456 15.8601 27.5484 15.9489 27.1543 15.9489C26.986 15.9489 26.8332 15.9388 26.6946 15.9194L26.4239 17.0712C26.607 17.0952 26.81 17.1076 27.0342 17.1076C27.453 17.1076 27.8196 17.0592 28.1337 16.9627C28.4479 16.8661 28.7172 16.7198 28.9421 16.5235C29.1669 16.3273 29.3547 16.0811 29.5057 15.7854C29.6566 15.4894 29.7782 15.1392 29.8706 14.7342L30.8223 10.6882L30.8189 10.6868L31 9.91587ZM9.5667 15.0791L10.7808 9.9129H12.1562L10.942 15.0791H9.5667ZM24.2542 11.0855C23.6129 11.0855 23.4905 11.0855 23.2277 11.2233C23.0412 11.3211 22.8868 11.4681 22.7512 11.6397C22.6155 11.8112 22.5091 12.0092 22.4321 12.2337C22.3549 12.4584 22.3164 12.6922 22.3164 12.9355C22.3164 13.2349 22.3657 13.472 22.4645 13.6466C22.563 13.8213 22.745 13.9085 23.0103 13.9085C23.1521 13.9085 23.2801 13.8805 23.3942 13.8243C23.5083 13.7682 23.6302 13.6746 23.7597 13.5436C23.772 13.3878 23.7921 13.2241 23.8198 13.0524C23.8452 12.8957 23.8767 12.7494 23.9056 12.6157L23.9137 12.5784L24.2542 11.0855ZM25.2307 12.8232C25.1442 13.1788 25.1196 13.5359 25.1566 13.8945C25.1937 14.2533 25.3294 14.803 25.4617 15.0781H24.1307C24.0096 14.8709 23.9828 14.7457 23.9643 14.6592C23.9579 14.6296 23.9526 14.6045 23.9447 14.5822C23.772 14.7258 23.5808 14.8442 23.3712 14.9378C23.1614 15.0313 22.927 15.0781 22.6679 15.0781C22.3595 15.0781 22.0958 15.0234 21.877 14.9144C21.6579 14.8053 21.4791 14.6587 21.3404 14.4747C21.2016 14.2908 21.1012 14.0755 21.0397 13.8291C20.978 13.5827 20.9472 13.3191 20.9472 13.0384C20.9472 12.608 21.0226 12.2026 21.1739 11.8221C21.3249 11.4417 21.5347 11.1095 21.803 10.8256C22.0712 10.5418 22.7187 9.91595 23.7813 9.91595L25.915 9.91588L25.2307 12.8232ZM17.1837 13.8909C17.2893 13.9161 17.4197 13.9286 17.575 13.9286C17.8171 13.9286 18.0374 13.8831 18.2363 13.7921C18.4349 13.7011 18.6042 13.5739 18.7439 13.4106C18.8836 13.2473 18.9921 13.0512 19.0698 12.8219C19.1474 12.5927 19.1863 12.34 19.1863 12.0636C19.1863 11.7937 19.1272 11.5644 19.0093 11.376C18.8913 11.1876 18.6844 11.0875 18.3926 11.0863C18.1886 11.0855 17.8497 11.0855 17.8497 11.0855L17.1837 13.8909ZM20.5647 11.96C20.5647 12.4185 20.4902 12.8376 20.3412 13.2175C20.1922 13.5975 19.9857 13.9256 19.7218 14.2018C19.4578 14.4782 19.1411 14.6932 18.7718 14.8471C18.4023 15.0008 18.0002 15.0778 17.5656 15.0778C17.3545 15.0778 17.1433 15.059 16.9323 15.0213L16.5131 16.7261H15.1347L16.7348 9.91603L18.0929 9.91601L18.5716 9.91603C18.9192 9.91603 19.2189 9.96945 19.4703 10.0762C19.7218 10.183 19.9282 10.329 20.0897 10.5141C20.251 10.6995 20.3705 10.9161 20.4483 11.164C20.5258 11.4123 20.5647 11.6774 20.5647 11.96Z" fill="#002855"/>
</svg>
