<svg width="39" height="32" viewBox="0 0 39 32" fill="none" xmlns="http://www.w3.org/2000/svg">
<rect x="1.30322" y="0.5" width="36.9495" height="31" fill="black"/>
<path d="M36.286 16.61L32.7282 9.61C32.6374 9.42925 32.4855 9.27503 32.2915 9.16656C32.0975 9.05809 31.8699 9.00016 31.6371 9H28.0794V7C28.0794 6.73478 27.9544 6.48043 27.732 6.29289C27.5096 6.10536 27.208 6 26.8935 6H4.36097C4.04644 6 3.7448 6.10536 3.5224 6.29289C3.29999 6.48043 3.17505 6.73478 3.17505 7V24C3.17505 24.2652 3.29999 24.5196 3.5224 24.7071C3.7448 24.8946 4.04644 25 4.36097 25H6.89884C7.17194 25.8474 7.76812 26.5954 8.59541 27.1287C9.42271 27.6621 10.4351 27.951 11.4765 27.951C12.5179 27.951 13.5303 27.6621 14.3576 27.1287C15.1849 26.5954 15.7811 25.8474 16.0541 25H23.5017C23.7748 25.8474 24.371 26.5954 25.1983 27.1287C26.0256 27.6621 27.038 27.951 28.0794 27.951C29.1207 27.951 30.1332 27.6621 30.9605 27.1287C31.7878 26.5954 32.3839 25.8474 32.657 25H35.1949C35.5094 25 35.8111 24.8946 36.0335 24.7071C36.2559 24.5196 36.3808 24.2652 36.3808 24V17C36.3805 16.866 36.3483 16.7333 36.286 16.61ZM28.0794 11H30.8544L33.3923 16H28.0794V11ZM11.4765 26C11.0074 26 10.5488 25.8827 10.1588 25.6629C9.76872 25.4432 9.46472 25.1308 9.2852 24.7654C9.10568 24.3999 9.05871 23.9978 9.15023 23.6098C9.24174 23.2219 9.46764 22.8655 9.79935 22.5858C10.1311 22.3061 10.5537 22.1156 11.0138 22.0384C11.4739 21.9613 11.9508 22.0009 12.3842 22.1522C12.8176 22.3036 13.188 22.56 13.4486 22.8889C13.7092 23.2178 13.8483 23.6044 13.8483 24C13.8483 24.5304 13.5984 25.0391 13.1536 25.4142C12.7088 25.7893 12.1055 26 11.4765 26ZM23.5017 23H16.0541C15.7811 22.1526 15.1849 21.4046 14.3576 20.8713C13.5303 20.3379 12.5179 20.049 11.4765 20.049C10.4351 20.049 9.42271 20.3379 8.59541 20.8713C7.76812 21.4046 7.17194 22.1526 6.89884 23H5.54689V8H25.7075V20.56C25.1675 20.8243 24.6947 21.1759 24.3162 21.5946C23.9376 22.0133 23.6609 22.4909 23.5017 23ZM28.0794 26C27.6103 26 27.1517 25.8827 26.7617 25.6629C26.3716 25.4432 26.0676 25.1308 25.8881 24.7654C25.7086 24.3999 25.6616 23.9978 25.7531 23.6098C25.8446 23.2219 26.0705 22.8655 26.4022 22.5858C26.7339 22.3061 27.1566 22.1156 27.6167 22.0384C28.0768 21.9613 28.5537 22.0009 28.987 22.1522C29.4204 22.3036 29.7909 22.56 30.0515 22.8889C30.3121 23.2178 30.4512 23.6044 30.4512 24C30.4512 24.5304 30.2013 25.0391 29.7565 25.4142C29.3117 25.7893 28.7084 26 28.0794 26ZM34.009 23H32.657C32.3948 22.1435 31.8033 21.3845 30.975 20.8417C30.1467 20.2989 29.1284 20.0029 28.0794 20V18H34.009V23Z" fill="#FC003F"/>
<rect x="1.30322" y="0.5" width="36.9495" height="31" stroke="black"/>
</svg>
