<svg width="36" height="36" viewBox="0 0 36 36" fill="none" xmlns="http://www.w3.org/2000/svg">
<path d="M25.8749 22.5C25.0328 22.5042 24.2024 22.6975 23.445 23.0655C22.6876 23.4335 22.0224 23.9668 21.4987 24.6262L13.2749 19.485C13.5746 18.5177 13.5746 17.4823 13.2749 16.515L21.4987 11.3737C22.3333 12.4073 23.5069 13.1121 24.8115 13.3632C26.116 13.6143 27.4674 13.3956 28.6261 12.7458C29.7849 12.096 30.6762 11.057 31.1423 9.81296C31.6083 8.56889 31.619 7.2 31.1725 5.9488C30.7259 4.69759 29.8509 3.64483 28.7024 2.97699C27.554 2.30916 26.2062 2.06937 24.8979 2.30009C23.5896 2.53081 22.4051 3.21716 21.5544 4.23754C20.7037 5.25793 20.2415 6.5465 20.2499 7.87498C20.2552 8.37806 20.3309 8.87791 20.4749 9.35998L12.2512 14.5012C11.5251 13.5873 10.5328 12.9218 9.4116 12.5971C8.29044 12.2723 7.09602 12.3044 5.99392 12.6889C4.89181 13.0733 3.9366 13.7911 3.2607 14.7428C2.5848 15.6944 2.22168 16.8327 2.22168 18C2.22168 19.1672 2.5848 20.3056 3.2607 21.2572C3.9366 22.2088 4.89181 22.9266 5.99392 23.3111C7.09602 23.6956 8.29044 23.7276 9.4116 23.4029C10.5328 23.0782 11.5251 22.4127 12.2512 21.4987L20.4749 26.64C20.3309 27.1221 20.2552 27.6219 20.2499 28.125C20.2499 29.2375 20.5798 30.325 21.1979 31.2501C21.816 32.1751 22.6945 32.8961 23.7223 33.3218C24.7501 33.7475 25.8811 33.8589 26.9723 33.6419C28.0634 33.4249 29.0657 32.8891 29.8524 32.1025C30.639 31.3158 31.1748 30.3135 31.3918 29.2224C31.6089 28.1312 31.4975 27.0002 31.0717 25.9724C30.646 24.9446 29.925 24.066 29 23.448C28.075 22.8299 26.9874 22.5 25.8749 22.5ZM25.8749 4.49999C26.5424 4.49999 27.1949 4.69793 27.75 5.06878C28.305 5.43963 28.7375 5.96673 28.993 6.58343C29.2484 7.20013 29.3153 7.87873 29.1851 8.53341C29.0548 9.1881 28.7334 9.78947 28.2614 10.2615C27.7894 10.7335 27.188 11.0549 26.5333 11.1851C25.8786 11.3154 25.2 11.2485 24.5833 10.9931C23.9666 10.7376 23.4395 10.305 23.0687 9.75003C22.6978 9.19502 22.4999 8.5425 22.4999 7.87498C22.4999 6.97988 22.8555 6.12143 23.4884 5.4885C24.1213 4.85556 24.9798 4.49999 25.8749 4.49999ZM7.8749 21.375C7.20739 21.375 6.55487 21.177 5.99985 20.8062C5.44484 20.4353 5.01225 19.9082 4.75681 19.2915C4.50136 18.6748 4.43453 17.9962 4.56475 17.3416C4.69498 16.6869 5.01641 16.0855 5.48842 15.6135C5.96042 15.1415 6.56179 14.8201 7.21647 14.6898C7.87116 14.5596 8.54976 14.6264 9.16646 14.8819C9.78316 15.1373 10.3103 15.5699 10.6811 16.1249C11.052 16.6799 11.2499 17.3325 11.2499 18C11.2499 18.8951 10.8943 19.7535 10.2614 20.3865C9.62845 21.0194 8.77001 21.375 7.8749 21.375ZM25.8749 31.5C25.2074 31.5 24.5549 31.302 23.9999 30.9312C23.4448 30.5603 23.0123 30.0332 22.7568 29.4165C22.5014 28.7998 22.4345 28.1212 22.5648 27.4666C22.695 26.8119 23.0164 26.2105 23.4884 25.7385C23.9604 25.2665 24.5618 24.9451 25.2165 24.8148C25.8712 24.6846 26.5498 24.7514 27.1665 25.0069C27.7832 25.2623 28.3103 25.6949 28.6811 26.2499C29.052 26.805 29.2499 27.4575 29.2499 28.125C29.2499 29.0201 28.8943 29.8785 28.2614 30.5115C27.6285 31.1444 26.77 31.5 25.8749 31.5Z" fill="black"/>
</svg>
