<svg width="35" height="24" viewBox="0 0 35 24" fill="none" xmlns="http://www.w3.org/2000/svg">
<rect x="0.5" y="0.5" width="34" height="23" rx="5.5" fill="#F5F5F5" stroke="#D9D9D9"/>
<path fill-rule="evenodd" clip-rule="evenodd" d="M16.5301 15.758V12.7371H18.0893C18.7282 12.7371 19.2675 12.523 19.7071 12.1008L19.8126 11.9937C20.6156 11.1196 20.5629 9.75775 19.7071 8.94899C19.2792 8.52082 18.6931 8.2889 18.0893 8.30079H15.5864V15.758H16.5301ZM16.5302 11.8213V9.21658H18.1131C18.4531 9.21658 18.7756 9.34741 19.0159 9.58528C19.526 10.0848 19.5377 10.9174 19.0453 11.4347C18.8049 11.6904 18.4649 11.8332 18.1131 11.8213H16.5302ZM24.2147 11.0541C23.8102 10.6795 23.2592 10.4892 22.5617 10.4892C21.6649 10.4892 20.9908 10.8222 20.5453 11.4823L21.3777 12.0116C21.6825 11.5596 22.0986 11.3336 22.6262 11.3336C22.9603 11.3336 23.2827 11.4585 23.5347 11.6845C23.7809 11.8986 23.9216 12.2078 23.9216 12.5349V12.7549C23.5582 12.5527 23.101 12.4457 22.5383 12.4457C21.8818 12.4457 21.3542 12.6003 20.9615 12.9155C20.5688 13.2307 20.3695 13.6469 20.3695 14.1762C20.3578 14.6579 20.5629 15.1158 20.9263 15.425C21.2956 15.758 21.7645 15.9245 22.3155 15.9245C22.9661 15.9245 23.482 15.6332 23.8747 15.0504H23.9157V15.758H24.8184V12.6122C24.8184 11.9521 24.6191 11.4288 24.2147 11.0541ZM21.6533 14.8184C21.4599 14.6757 21.3426 14.4438 21.3426 14.194C21.3426 13.9145 21.4716 13.6826 21.7237 13.4983C21.9816 13.3139 22.3041 13.2188 22.6851 13.2188C23.2127 13.2128 23.6231 13.3318 23.9162 13.5696C23.9162 13.974 23.758 14.3249 23.4472 14.6222C23.1658 14.9076 22.7848 15.0682 22.3861 15.0682C22.1223 15.0742 21.8644 14.985 21.6533 14.8184ZM26.8465 18L30 10.6557H28.9743L27.5147 14.3189H27.4972L26.0025 10.6557H24.9767L27.0458 15.431L25.8735 18H26.8465Z" fill="#3C4043"/>
<path d="M13.2721 12.0829C13.2721 11.7916 13.2487 11.5002 13.2018 11.2147H9.22177V12.862H11.5019C11.4081 13.3912 11.1033 13.867 10.6579 14.1643V15.2347H12.0177C12.8149 14.4914 13.2721 13.3912 13.2721 12.0829Z" fill="#4285F4"/>
<path d="M9.22195 16.2695C10.3591 16.2695 11.3204 15.8889 12.0179 15.2347L10.658 14.1643C10.277 14.426 9.79052 14.5746 9.22195 14.5746C8.11998 14.5746 7.18799 13.8194 6.85388 12.8084H5.45297V13.9145C6.16808 15.3596 7.62761 16.2695 9.22195 16.2695Z" fill="#34A853"/>
<path d="M6.85401 12.8085C6.67814 12.2792 6.67814 11.7024 6.85401 11.1672V10.067H5.45288C4.84904 11.2742 4.84904 12.7014 5.45288 13.9086L6.85401 12.8085Z" fill="#FBBC04"/>
<path d="M9.22195 9.40096C9.82569 9.38906 10.406 9.62099 10.8397 10.0432L12.0472 8.81817C11.2794 8.09267 10.2712 7.69424 9.22195 7.70613C7.62761 7.70613 6.16808 8.62193 5.45297 10.067L6.85388 11.1731C7.18799 10.1562 8.11998 9.40096 9.22195 9.40096Z" fill="#EA4335"/>
</svg>
