<svg width="36" height="36" viewBox="0 0 36 36" fill="none" xmlns="http://www.w3.org/2000/svg">
<path d="M13.4099 28.0575C15.3102 28.0694 17.194 27.704 18.9519 26.9823C20.7099 26.2606 22.307 25.197 23.6507 23.8533C24.9945 22.5096 26.058 20.9124 26.7797 19.1545C27.5014 17.3965 27.8669 15.5128 27.8549 13.6125C27.8549 13.3875 27.8549 13.1737 27.8549 12.9487C28.84 12.227 29.6926 11.3402 30.3749 10.3275C29.4474 10.7332 28.4659 11.0022 27.4612 11.1262C28.5265 10.4915 29.3258 9.49236 29.7112 8.31373C28.7184 8.90935 27.6297 9.32807 26.4937 9.55123C25.7286 8.73602 24.7162 8.19567 23.6131 8.01379C22.51 7.83191 21.3777 8.01864 20.3914 8.54509C19.4051 9.07154 18.6198 9.90836 18.157 10.9261C17.6942 11.9438 17.5797 13.0856 17.8312 14.175C15.813 14.0759 13.8382 13.5529 12.0356 12.6399C10.2329 11.727 8.64279 10.4446 7.36869 8.87623C6.72623 9.9913 6.53149 11.3088 6.82392 12.5621C7.11634 13.8153 7.87407 14.9106 8.94369 15.6262C8.15463 15.5958 7.38382 15.38 6.69369 14.9962V15.0525C6.68668 16.2178 7.07925 17.3503 7.80598 18.2613C8.53271 19.1723 9.5497 19.8066 10.6874 20.0587C9.95353 20.2561 9.18477 20.2869 8.43744 20.1487C8.76682 21.1425 9.39558 22.0101 10.2375 22.6325C11.0794 23.2549 12.0932 23.6015 13.1399 23.625C11.3503 25.0656 9.12604 25.8585 6.82869 25.875C6.42589 25.8633 6.02403 25.8295 5.62494 25.7737C7.95026 27.2552 10.6528 28.0363 13.4099 28.0237" fill="black"/>
</svg>
