<svg width="36" height="36" viewBox="0 0 36 36" fill="none" xmlns="http://www.w3.org/2000/svg">
<path d="M30.0038 4.5H5.99631C5.60039 4.50294 5.22152 4.66153 4.94156 4.94149C4.66159 5.22146 4.503 5.60033 4.50006 5.99625V30.0037C4.503 30.3997 4.66159 30.7785 4.94156 31.0585C5.22152 31.3385 5.60039 31.4971 5.99631 31.5H18.9226V21.06H15.4126V16.9762H18.9226V13.9725C18.9226 10.485 21.0488 8.58375 24.1763 8.58375C25.2226 8.58375 26.2688 8.58375 27.3151 8.74125V12.375H25.1663C23.4676 12.375 23.1413 13.185 23.1413 14.3663V16.965H27.1913L26.6626 21.0487H23.1413V31.5H30.0038C30.3997 31.4971 30.7786 31.3385 31.0586 31.0585C31.3385 30.7785 31.4971 30.3997 31.5001 30.0037V5.99625C31.4971 5.60033 31.3385 5.22146 31.0586 4.94149C30.7786 4.66153 30.3997 4.50294 30.0038 4.5Z" fill="black"/>
</svg>
